<svg id="Layer_1" data-name="Layer 1" xmlns="http://www.w3.org/2000/svg" viewBox="0 0 570 409"><defs><style>.cls-1{fill:#000;}.cls-2{fill:#3c6;}</style></defs><path class="cls-1" d="M8.4,114.5c10.67,2.91,21.14,6.89,32,8.52,33.82,5.08,64.74-3.34,91.38-24.4,15.61-12.35,29.7-26.71,43.86-40.78,22-21.86,46.52-39.55,77-47,46-11.28,89.89-5.93,130.43,19.65,12.82,8.09,23.12,19,31.59,31.6,2.55,3.78,5.27,5.83,10.19,6.48,45.68,6,79.18,30.16,101.69,69.92,16.46,29.06,27.92,60,32.87,93.1,2.23,14.92,2.29,30.16,3.29,45.26a23.12,23.12,0,0,1-.32,3.51c-7.61-1.57-15-3.52-22.44-4.56-30.66-4.25-58.81,3.07-84.76,19.41-17.34,10.92-31.89,25.13-45.77,40-16.26,17.47-32.8,34.55-53.34,47.19C325.85,401,293,407.3,258,404.13c-24.59-2.22-47.58-9.05-68.23-23a117.7,117.7,0,0,1-31.15-31.34,8.92,8.92,0,0,0-6.71-4.15c-39.8-6.7-71.2-26.59-93.69-60.28-21.74-32.58-34.83-68.62-42.94-106.7a314.21,314.21,0,0,1-6.91-62.88A7.61,7.61,0,0,1,8.4,114.5Zm521.7,44.18.89-.84c-3.31-6.11-6.51-12.28-10-18.3-1.29-2.23-2.84-4.71-4.94-6-54.38-33.63-111-39-170-13-29.32,12.91-53.39,32.88-75.74,55.39-13.83,13.93-27.42,28.36-42.76,40.49-48.74,38.57-103.54,52.16-164.52,36.29-6.5-1.69-12.81-4.13-20.72-6.71,4.49,8.45,8.21,15.62,12.14,22.67.56,1,2,1.67,3.2,2.18,45.1,19.4,90.47,19.25,136.05,1.79,31.91-12.22,58-32.76,82-56.54,15.61-15.46,30.83-31.5,47.8-45.35a178.28,178.28,0,0,1,100.89-40.26c32-2.42,62.2,4.56,90.47,19.73C520,152.91,525.05,155.84,530.1,158.68ZM507.74,121.6c-11.33-16.18-26-28.58-44-36.37-44.07-19-88.19-16.71-131.89,1.42-31.66,13.13-57.31,34.74-81.13,58.86-12.87,13-25.38,26.63-39.54,38.15-51.83,42.2-109.77,54.6-174,33.15-1.94-.64-3.94-1.1-6.78-1.89,2.85,7.62,5.21,14.37,8,20.93a8.21,8.21,0,0,0,4.14,3.81c57.92,24.2,112.86,16.55,165.35-15.82,20.62-12.71,37.61-29.67,54.17-47.07,20.41-21.45,42.08-41.3,68.63-55.1,40.39-21,82.69-28.86,127.57-18.47A220.28,220.28,0,0,1,507.74,121.6Zm33.66,63.18c-1.36-3.74-2.81-7.25-3.93-10.88-1.36-4.39-3.71-7.9-8.26-9.23-9.68-2.81-19.28-6.23-29.16-8-40-7-78.53-1.62-115.31,15.69C357.8,185.07,335.53,204,315,225.16c-18.76,19.39-37.17,39.18-59,55.27-50.69,37.29-105.2,46.71-164.27,22.43C85,300.12,78.53,297,72,294l-1.19,1.34c2.63,2.22,5.46,4.25,7.85,6.71,31.09,31.95,69.28,43.48,112.8,38.55,29.88-3.38,55.91-16.44,79.89-34.07,23.22-17.07,43.13-37.69,62.95-58.38,21.26-22.18,44.31-41.8,72.69-54.44,32-14.26,65.28-20.62,100.22-15.61C518.44,179.7,529.57,182.43,541.4,184.78ZM13.73,122.39c.5,7.5.8,14.78,1.61,22,.15,1.29,2.25,3,3.75,3.38,11.05,2.94,22,7.07,33.3,8.09C95.14,159.69,133.06,147,165.46,119c14.1-12.18,27.17-25.55,40.58-38.53,48.22-46.66,109.28-53.79,165.19-18.6,6.62,4.17,12.61,6.13,20.24,5.28,6.3-.7,12.76-.14,20.1-.14-8.31-12.55-17.56-22.84-29.21-30.4-44.5-28.89-92.1-33.2-141.78-16-24.63,8.52-44.37,24.6-62.44,42.94-15.07,15.3-29.67,31.13-47.62,43.29-28.87,19.56-60.39,27.21-94.91,21C28.47,126.51,21.49,124.33,13.73,122.39Zm150,225.3c7.82,11.34,16.83,21.17,28.13,28.3,45.22,28.55,92.93,30.4,141.89,11.39,26.4-10.25,46.37-29.55,65.65-49.58,11-11.4,21.88-22.95,33.82-33.27,30.48-26.35,65.62-39.33,106.36-34.35,5.72.69,11.37,1.88,17.71,3-.33-6.22-1-12-.84-17.79.08-4.18-1.79-5.64-5.47-6.74-27.43-8.14-54.59-6.21-81.6,1.91-29.31,8.8-53.26,26.09-74.75,47.31-13.27,13.1-26.22,26.58-40.17,38.92-22.18,19.64-48.1,31.35-78,33.06-28.9,1.66-55.21-6.34-79.52-21.68a10.46,10.46,0,0,0-5.46-1.86C182.51,346.54,173.56,347.15,163.76,347.69ZM16.53,154c1.2,7.25,2.27,14.61,3.76,21.89.25,1.2,2.18,2.39,3.59,3,25.4,10.72,51.8,13,78.84,8.7,38.08-6,69.65-24.35,96.72-51.22,11.95-11.84,23.61-24,36.2-35.15,24.47-21.64,53.05-33.19,85.87-27.6,14.28,2.43,27.31,2,40.65-2.53,2.83-1,5.8-1.53,9.44-2.47a53.77,53.77,0,0,0-4.31-3.24c-43.7-25.94-87.93-28-131.51-.7C222,73.31,210,85.17,198.08,96.43c-14.67,13.83-28.59,28.42-45.56,39.58C121.29,156.55,87.13,165.29,50,160.86,39,159.55,28.25,156.46,16.53,154Zm538.86,88.58C554.5,237,553.31,231,552.67,225c-.39-3.63-2.28-5-5.44-6a148.23,148.23,0,0,0-70.56-4.71c-38.13,6.4-70.65,23.88-98.28,50.7-13.62,13.23-26.77,27-40.71,39.86-23.63,21.85-51.13,35.78-84,32.5a93,93,0,0,0-42.55,5.23c-2.56.94-5.27,1.46-8.73,2.4,1.64,1.15,2.39,1.76,3.23,2.24,29.52,16.71,60.62,22,93.79,13.26,25.47-6.7,45.86-21.56,64.46-39.4,15.86-15.21,30.78-31.56,47.67-45.53,30.79-25.48,66.64-38.59,107-37.22C530.55,238.66,542.53,241,555.39,242.59Zm-495,35.58-.66,1.2c4.1,2.59,8.11,5.35,12.33,7.76,25.09,14.35,51.82,23.48,81,23.71,33,.26,62.73-10.28,90.06-28.31,22-14.52,40.61-32.87,58.81-51.7,15.75-16.3,31.4-32.7,50.09-45.78,37.88-26.51,79.8-38.94,126.07-36.18,8,.48,15.88,1.15,23.82,1.72A139.1,139.1,0,0,0,449.41,136c-36-2.66-69.27,6.4-100.39,24.13-22.55,12.86-41,30.59-58.87,49.12S253.86,246,231.66,259.69c-53,32.6-108.82,41.08-168.08,19.19A23.21,23.21,0,0,0,60.35,278.17ZM22.51,185.83c1.67,6.58,3.31,13.47,5.28,20.26.32,1.13,2,2.18,3.23,2.71,15.6,6.52,31.81,11,48.68,12.2,50.4,3.52,94.6-11.84,132.23-45.34,14.16-12.61,27.25-26.45,40.67-39.88,20.87-20.88,43.66-39.07,70.64-51.53,2.32-1.07,4.66-2.08,7-3.12a14.59,14.59,0,0,0-5.39-1.56c-28.39-5.14-54.21,1.45-76.51,19.11-14.83,11.73-28.32,25.24-41.82,38.54-17.83,17.55-37,33.12-60,43.24-27.22,11.94-55.63,17.25-85.24,13.32C48.48,192.09,36,188.65,22.51,185.83Zm528,27.65C548.65,207,547,200.63,545,194.37c-.35-1.1-2-2.1-3.29-2.56a158.69,158.69,0,0,0-50.21-9.74c-41.47-1.15-79,10.91-113,34.45-19.74,13.66-36,31.08-52.59,48.18-23.59,24.36-48.1,47.54-78.42,63.58a47.08,47.08,0,0,0-4.39,3.18c3.06.32,5,.58,6.88.72,29.82,2.09,55.93-7.26,78.1-26.81,14.84-13.09,28.76-27.25,42.83-41.2,19.87-19.69,42.27-35.47,68.51-45.53,27-10.36,54.85-14.82,83.69-10.51C532,209.47,540.86,211.58,550.47,213.48Z"/><path class="cls-2" d="M530.1,158.68c-5.05-2.84-10.06-5.77-15.17-8.51C486.66,135,456.42,128,424.46,130.44A178.28,178.28,0,0,0,323.57,170.7c-17,13.85-32.19,29.89-47.8,45.35-24,23.78-50.12,44.32-82,56.54-45.58,17.46-90.95,17.61-136-1.79-1.18-.51-2.64-1.17-3.2-2.18-3.93-7.05-7.65-14.22-12.14-22.67,7.91,2.58,14.22,5,20.72,6.71,61,15.87,115.78,2.28,164.52-36.29,15.34-12.13,28.93-26.56,42.76-40.49,22.35-22.51,46.42-42.48,75.74-55.39,59-26,115.59-20.59,170,13,2.1,1.3,3.65,3.78,4.94,6,3.48,6,6.68,12.19,10,18.3Z"/><path class="cls-2" d="M507.74,121.6a220.28,220.28,0,0,0-49.49-18.4c-44.88-10.39-87.18-2.52-127.57,18.47-26.55,13.8-48.22,33.65-68.63,55.1-16.56,17.4-33.55,34.36-54.17,47.07-52.49,32.37-107.43,40-165.35,15.82a8.21,8.21,0,0,1-4.14-3.81c-2.77-6.56-5.13-13.31-8-20.93,2.84.79,4.84,1.25,6.78,1.89,64.19,21.45,122.13,9.05,174-33.15,14.16-11.52,26.67-25.11,39.54-38.15,23.82-24.12,49.47-45.73,81.13-58.86,43.7-18.13,87.82-20.43,131.89-1.42C481.77,93,496.41,105.42,507.74,121.6Z"/><path class="cls-2" d="M541.4,184.78c-11.83-2.35-23-5.08-34.24-6.69-34.94-5-68.2,1.35-100.22,15.61-28.38,12.64-51.43,32.26-72.69,54.44-19.82,20.69-39.73,41.31-62.95,58.38-24,17.63-50,30.69-79.89,34.07C147.89,345.52,109.7,334,78.61,302c-2.39-2.46-5.22-4.49-7.85-6.71L72,294c6.58,3,13.09,6.13,19.76,8.87,59.07,24.28,113.58,14.86,164.27-22.43,21.86-16.09,40.27-35.88,59-55.27,20.52-21.21,42.79-40.09,69.73-52.77,36.78-17.31,75.28-22.73,115.31-15.69,9.88,1.74,19.48,5.16,29.16,8,4.55,1.33,6.9,4.84,8.26,9.23C538.59,177.53,540,181,541.4,184.78Z"/><path class="cls-2" d="M13.73,122.39c7.76,1.94,14.74,4.12,21.88,5.41,34.52,6.23,66-1.42,94.91-21,17.95-12.16,32.55-28,47.62-43.29C196.21,45.19,216,29.11,240.58,20.59c49.68-17.17,97.28-12.86,141.78,16C394,44.18,403.26,54.47,411.57,67c-7.34,0-13.8-.56-20.1.14-7.63.85-13.62-1.11-20.24-5.28-55.91-35.19-117-28.06-165.19,18.6-13.41,13-26.48,26.35-40.58,38.53-32.4,28-70.32,40.68-113.07,36.84-11.26-1-22.25-5.15-33.3-8.09-1.5-.4-3.6-2.09-3.75-3.38C14.53,137.17,14.23,129.89,13.73,122.39Z"/><path class="cls-2" d="M163.76,347.69c9.8-.54,18.75-1.15,27.72-1.42a10.46,10.46,0,0,1,5.46,1.86c24.31,15.34,50.62,23.34,79.52,21.68,29.93-1.71,55.85-13.42,78-33.06,13.95-12.34,26.9-25.82,40.17-38.92,21.49-21.22,45.44-38.51,74.75-47.31,27-8.12,54.17-10.05,81.6-1.91,3.68,1.1,5.55,2.56,5.47,6.74-.11,5.78.51,11.57.84,17.79-6.34-1.08-12-2.27-17.71-3-40.74-5-75.88,8-106.36,34.35-11.94,10.32-22.86,21.87-33.82,33.27-19.28,20-39.25,39.33-65.65,49.58-49,19-96.67,17.16-141.89-11.39C180.59,368.86,171.58,359,163.76,347.69Z"/><path class="cls-2" d="M16.53,154C28.25,156.46,39,159.55,50,160.86c37.16,4.43,71.32-4.31,102.55-24.85,17-11.16,30.89-25.75,45.56-39.58,12-11.26,23.9-23.12,37.7-31.75,43.58-27.27,87.81-25.24,131.51.7a53.77,53.77,0,0,1,4.31,3.24c-3.64.94-6.61,1.5-9.44,2.47-13.34,4.56-26.37,5-40.65,2.53-32.82-5.59-61.4,6-85.87,27.6-12.59,11.13-24.25,23.31-36.2,35.15-27.07,26.87-58.64,45.23-96.72,51.22-27,4.25-53.44,2-78.84-8.7-1.41-.6-3.34-1.79-3.59-3C18.8,168.62,17.73,161.26,16.53,154Z"/><path class="cls-2" d="M555.39,242.59c-12.86-1.57-24.84-3.93-36.89-4.34-40.33-1.37-76.18,11.74-107,37.22-16.89,14-31.81,30.32-47.67,45.53-18.6,17.84-39,32.7-64.46,39.4-33.17,8.71-64.27,3.45-93.79-13.26-.84-.48-1.59-1.09-3.23-2.24,3.46-.94,6.17-1.46,8.73-2.4a93,93,0,0,1,42.55-5.23c32.89,3.28,60.39-10.65,84-32.5,13.94-12.89,27.09-26.63,40.71-39.86,27.63-26.82,60.15-44.3,98.28-50.7a148.23,148.23,0,0,1,70.56,4.71c3.16,1,5,2.41,5.44,6C553.31,231,554.5,237,555.39,242.59Z"/><path class="cls-2" d="M60.35,278.17a23.21,23.21,0,0,1,3.23.71c59.26,21.89,115.07,13.41,168.08-19.19,22.2-13.65,40.55-31.85,58.49-50.47S326.47,173,349,160.1c31.12-17.73,64.41-26.79,100.39-24.13a139.1,139.1,0,0,1,52.44,14.62c-7.94-.57-15.87-1.24-23.82-1.72-46.27-2.76-88.19,9.67-126.07,36.18-18.69,13.08-34.34,29.48-50.09,45.78-18.2,18.83-36.81,37.18-58.81,51.7-27.33,18-57.07,28.57-90.06,28.31-29.16-.23-55.89-9.36-81-23.71-4.22-2.41-8.23-5.17-12.33-7.76Z"/><path class="cls-2" d="M22.51,185.83c13.44,2.82,26,6.26,38.73,7.95,29.61,3.93,58-1.38,85.24-13.32,23.08-10.12,42.21-25.69,60-43.24,13.5-13.3,27-26.81,41.82-38.54,22.3-17.66,48.12-24.25,76.51-19.11a14.59,14.59,0,0,1,5.39,1.56c-2.34,1-4.68,2.05-7,3.12-27,12.46-49.77,30.65-70.64,51.53-13.42,13.43-26.51,27.27-40.67,39.88C174.3,209.16,130.1,224.52,79.7,221c-16.87-1.18-33.08-5.68-48.68-12.2-1.27-.53-2.91-1.58-3.23-2.71C25.82,199.3,24.18,192.41,22.51,185.83Z"/><path class="cls-2" d="M550.47,213.48c-9.61-1.9-18.46-4-27.42-5.35-28.84-4.31-56.65.15-83.69,10.51-26.24,10.06-48.64,25.84-68.51,45.53-14.07,13.95-28,28.11-42.83,41.2-22.17,19.55-48.28,28.9-78.1,26.81-1.91-.14-3.82-.4-6.88-.72a47.08,47.08,0,0,1,4.39-3.18c30.32-16,54.83-39.22,78.42-63.58,16.56-17.1,32.85-34.52,52.59-48.18,34-23.54,71.57-35.6,113-34.45a158.69,158.69,0,0,1,50.21,9.74c1.27.46,2.94,1.46,3.29,2.56C547,200.63,548.65,207,550.47,213.48Z"/></svg>