<svg id="Layer_1" data-name="Layer 1" xmlns="http://www.w3.org/2000/svg" viewBox="0 0 389 342"><defs><style>.cls-1{fill:#1db954;}.cls-2{font-size:100px;fill:#fff;font-family:Anydore;}</style></defs><path class="cls-1" d="M184.46,181.15c-35.33,0-70.67-.13-106,0-24.67.12-43.36-10.55-54.61-32.07s-8.63-43.38,4.82-63.4c19.24-28.66,53.54-40.65,87.51-31,4.13,1.17,6.23.57,8.79-3.07C157.79,4.92,225.07-.54,266.68,40.31c6.56,6.44,11.71,14.41,16.95,22.07,1.86,2.71,3.3,3.74,6.58,3.67,29.18-.68,53.75,18.46,59.47,46.1,7.24,35-19.53,68.5-55.23,68.95-18.33.23-36.67.06-55,.07h-55ZM293.19,81c.71,11.71,1.52,22.94,2,34.18.2,4.64-3.1,7.86-7.19,7.79s-7.1-3.6-7.13-8c0-3.49.06-7-.12-10.49-2.84-56.4-62-92.65-113.14-69.3A75.73,75.73,0,0,0,136.47,60.9c8.5,8.64,16.76,16.53,24.39,25,3.27,3.63,5.58,8.28,7.65,12.78,1.79,3.88.05,7.37-3.72,9.14-3.49,1.63-6.86,1-9.11-2.6-1.06-1.69-2.05-3.43-3.1-5.12-13.27-21.22-32.36-32.52-57.41-33.32-25.69-.82-49,13.52-58.64,35.68C21.67,136.78,48.6,166.82,78.2,166.4c71.46-1,143-.31,214.43-.38,20.55,0,36.19-12.08,41.92-32,5-17.31-2.54-36.22-18.81-46.66A38.68,38.68,0,0,0,293.19,81Z"/><path class="cls-1" d="M113.78,196.59c1.23-.08,2.46-.23,3.69-.23l200.47.22a12.51,12.51,0,0,1,1.5,0c7.88,1,13.32-2.18,18.19-8.51,11.17-14.52,23.05-28.48,34.63-42.67.53-.64.93-1.57,1.61-1.87a27.27,27.27,0,0,1,4.16-1.2c-.06,1.46.45,3.33-.27,4.3-3.46,4.68-7.23,9.14-10.93,13.64-11.84,14.42-23.9,28.66-35.45,43.32-4.7,6-10.16,8.11-17.61,8.08-56.16-.24-112.31-.14-168.47-.33a25.2,25.2,0,0,1-10.42-2.52c-7.27-3.47-14.24-7.55-21.33-11.38Z"/><text class="cls-2" transform="translate(16.77 303.7)">SpotiMood</text></svg>